HIERARCHY
ROOT Hips
{
	OFFSET	0.00	0.00	0.00
	CHANNELS 6 Xposition Yposition Zposition Zrotation Xrotation Yrotation
	JOINT LeftUpLeg
	{
		OFFSET	 0.126116	-0.014019	-0.065224
		CHANNELS 3 Zrotation Xrotation Yrotation
		JOINT LeftLeg
		{
			OFFSET	 0.000000	 0.000000	 0.569914
			CHANNELS 3 Zrotation Xrotation Yrotation
			JOINT LeftFoot
			{
				OFFSET	 0.000000	 0.000000	 0.544423
				CHANNELS 3 Zrotation Xrotation Yrotation
				JOINT LeftToeBase
				{
					OFFSET	 0.000000	 0.000000	 0.207117
					CHANNELS 3 Zrotation Xrotation Yrotation
					End Site
					{
						OFFSET	 0.000000	 0.000000	 0.207117
					}
				}
			}
		}
	}
	JOINT RightUpLeg
	{
		OFFSET	-0.124023	-0.008373	-0.065224
		CHANNELS 3 Zrotation Xrotation Yrotation
		JOINT RightLeg
		{
			OFFSET	 0.000000	 0.000000	 0.570047
			CHANNELS 3 Zrotation Xrotation Yrotation
			JOINT RightFoot
			{
				OFFSET	 0.000000	 0.000000	 0.544354
				CHANNELS 3 Zrotation Xrotation Yrotation
				JOINT RightToeBase
				{
					OFFSET	 0.000000	 0.000000	 0.207540
					CHANNELS 3 Zrotation Xrotation Yrotation
					End Site
					{
						OFFSET	 0.000000	 0.000000	 0.207540
					}
				}
			}
		}
	}
	JOINT Spine
	{
		OFFSET	 0.000184	-0.007763	 0.117403
		CHANNELS 3 Zrotation Xrotation Yrotation
		JOINT Spine1
		{
			OFFSET	 0.000000	 0.000000	 0.137269
			CHANNELS 3 Zrotation Xrotation Yrotation
			JOINT Spine2
			{
				OFFSET	 0.000000	 0.000000	 0.156879
				CHANNELS 3 Zrotation Xrotation Yrotation
				JOINT LeftShoulder
				{
					OFFSET	 0.080501	-0.002496	 0.160144
					CHANNELS 3 Zrotation Xrotation Yrotation
					JOINT LeftArm
					{
						OFFSET	 0.000000	 0.000000	 0.164363
						CHANNELS 3 Zrotation Xrotation Yrotation
						JOINT LeftForeArm
						{
							OFFSET	 0.000000	 0.000000	 0.364576
							CHANNELS 3 Zrotation Xrotation Yrotation
							JOINT LeftHand
							{
								OFFSET	 0.000000	 0.000000	 0.360812
								CHANNELS 3 Zrotation Xrotation Yrotation
								JOINT LeftHandIndex1
								{
									OFFSET	 0.000000	 0.000000	 0.086006
									CHANNELS 3 Zrotation Xrotation Yrotation
									JOINT LeftHandIndex2
									{
										OFFSET	 0.000000	 0.000000	 0.047237
										CHANNELS 3 Zrotation Xrotation Yrotation
										JOINT LeftHandIndex3
										{
											OFFSET	-0.004284	-0.000551	 0.038165
											CHANNELS 3 Zrotation Xrotation Yrotation
											End Site
											{
												OFFSET	-0.004284	-0.000551	 0.038165
											}
										}
									}
								}
							}
						}
					}
				}
				JOINT Neck
				{
					OFFSET	 0.000000	 0.000000	 0.176489
					CHANNELS 3 Zrotation Xrotation Yrotation
					JOINT Head
					{
						OFFSET	 0.000000	-0.001747	 0.077940
						CHANNELS 3 Zrotation Xrotation Yrotation
						End Site
						{
							OFFSET	 0.000000	-0.001747	 0.077940
						}
					}
				}
				JOINT RightShoulder
				{
					OFFSET	-0.080363	 0.000306	 0.159706
					CHANNELS 3 Zrotation Xrotation Yrotation
					JOINT RightArm
					{
						OFFSET	 0.000000	 0.000000	 0.164196
						CHANNELS 3 Zrotation Xrotation Yrotation
						JOINT RightForeArm
						{
							OFFSET	 0.000000	 0.000000	 0.365611
							CHANNELS 3 Zrotation Xrotation Yrotation
							JOINT RightHand
							{
								OFFSET	 0.000000	 0.000000	 0.360648
								CHANNELS 3 Zrotation Xrotation Yrotation
								JOINT RightHandIndex1
								{
									OFFSET	 0.000000	 0.000000	 0.069977
									CHANNELS 3 Zrotation Xrotation Yrotation
									JOINT RightHandIndex2
									{
										OFFSET	 0.000000	 0.000000	 0.052305
										CHANNELS 3 Zrotation Xrotation Yrotation
										JOINT RightHandIndex3
										{
											OFFSET	 0.009002	-0.000782	 0.042196
											CHANNELS 3 Zrotation Xrotation Yrotation
											End Site
											{
												OFFSET	 0.009002	-0.000782	 0.042196
											}
										}
									}
								}
							}
						}
					}
				}
			}
		}
	}
}
MOTION
Frames:    9
Frame Time: 0.03333334
-0.719235	-1.659026	 1.275434	-177.095800	 5.846679	-1.035252	-4.320562	-7.894220	 179.384200	-0.782401	-12.122820	 0.245679	-20.434840	 56.774550	 10.187150	-2.385833	 28.452760	 0.000004	-3.253669	-10.562800	-178.681000	-4.749745	-16.624700	 1.765914	 5.697797	 78.244160	 3.643200	 2.384659	 28.388700	-0.000001	-2.272169	 7.464136	 2.240389	-1.268817	-14.322560	-14.212980	 0.745803	-4.187363	 17.621730	-91.776140	 78.527400	 180.000000	-33.009830	-8.153275	-16.395660	-5.241798	-0.086544	-0.538408	 6.581193	-26.217970	-4.949914	-4.131196	 21.524690	 0.986298	-5.167839	 0.733520	 3.519257	-1.378229	 35.397820	-2.634230	 1.629898	 7.252349	 0.270354	-15.831880	-8.577636	-5.147660	 89.782060	 78.203870	-180.000000	 11.483310	 9.521788	-12.167880	 2.883709	-17.568570	 59.889150	 6.638103	 29.376910	 16.951630	 5.715225	 19.176060	-3.692089	 5.027514	 0.245388	-9.378011	-2.350882	 35.473990	 5.254307
-0.718900	-1.658511	 1.275366	-176.983000	 5.954558	-1.230749	-4.145754	-8.055738	 179.527700	-0.802522	-12.328560	 0.245493	-20.328930	 56.419750	 10.215800	-2.385833	 28.452760	 0.000004	-2.820613	-10.861220	-178.460100	-4.777355	-16.934880	 1.789771	 4.514655	 79.175010	 4.951656	 2.384659	 28.388700	-0.000001	-2.507877	 7.536344	 2.396538	-1.389734	-14.599000	-14.214970	 0.732489	-4.076341	 17.591770	-91.776130	 78.527380	 180.000000	-33.944560	-7.692517	-16.392810	-5.370463	-0.085844	-0.547324	 6.385632	-26.368760	-4.892436	-4.131196	 21.524690	 0.986298	-5.167839	 0.733520	 3.519257	-1.378229	 35.397820	-2.634230	 1.616522	 7.476475	 0.370049	-15.789380	-8.831970	-5.217869	 89.782090	 78.203870	 180.000000	 11.615780	 10.015740	-12.515770	 3.013140	-17.844550	 60.597880	 7.281910	 30.443320	 17.278820	 5.715225	 19.176060	-3.692089	 5.027514	 0.245388	-9.378011	-2.350882	 35.473990	 5.254307
-0.710743	-1.646047	 1.273118	-176.393400	 6.498995	-2.467285	-4.016501	-10.440520	 179.295500	 1.448069	-19.919210	 1.159628	-26.468770	 56.220080	 16.403680	-2.385833	 28.452760	 0.000004	 2.283016	-14.929790	-176.328300	-6.789244	-22.119520	 1.550273	 33.767090	 86.875190	-22.381980	 2.384659	 28.388700	-0.000001	-5.756844	 6.445538	 3.498385	-4.398046	-10.249230	-16.989810	 1.720949	-6.232153	 18.874180	-91.776200	 78.527400	-180.000000	-31.629220	 6.634930	 18.939520	-11.664000	-7.503654	-65.800500	 4.975164	-27.638700	-4.432920	-4.131196	 21.524690	 0.986298	-5.167839	 0.733520	 3.519257	-1.378229	 35.397820	-2.634230	 1.397657	 7.964512	 1.319115	-15.378840	-8.809875	-5.059099	 89.782160	 78.203890	 179.999900	 6.088611	 19.694330	-18.100070	 7.564120	-19.789470	 74.938780	 7.390614	 25.220030	 15.377860	 5.715225	 19.176060	-3.692089	 5.027514	 0.245388	-9.378011	-2.350882	 35.473990	 5.254307
-0.706740	-1.639224	 1.272124	-176.358800	 6.706272	-2.613845	-4.918388	-10.995050	 178.641600	 2.641941	-22.963270	 1.795603	-30.163610	 56.599900	 20.009380	-2.385833	 28.452760	 0.000004	 2.787727	-16.979520	-175.673800	-6.949683	-24.401700	 1.634261	 47.088430	 86.027040	-35.708660	 2.384659	 28.388700	-0.000001	-7.298464	 5.585909	 3.553274	-5.927951	-6.683136	-18.760900	 2.622959	-8.070697	 20.147330	-91.776170	 78.527420	 180.000000	-29.140320	 12.897600	 27.743150	-13.804530	-7.585272	-80.878170	 4.587806	-28.001900	-4.317345	-4.131196	 21.524690	 0.986298	-5.167839	 0.733520	 3.519257	-1.378229	 35.397820	-2.634230	 1.520390	 8.077107	 1.278311	-15.338200	-9.094199	-5.169994	 89.782070	 78.203890	-180.000000	 2.568722	 25.446790	-19.230260	 9.138810	-20.113670	 79.594970	 4.689406	 20.293400	 16.042180	 5.715225	 19.176060	-3.692089	 5.027514	 0.245388	-9.378011	-2.350882	 35.473990	 5.254307
-0.696445	-1.620826	 1.269940	-176.504800	 7.800673	-2.601368	-7.643553	-11.549120	 176.633100	 4.565146	-28.449750	 3.115136	-37.129230	 56.710410	 27.416080	-2.385833	 28.452760	 0.000004	 3.736866	-22.206680	-174.095700	-6.647201	-28.645320	 2.041775	 36.054160	 78.666370	-26.007090	 2.384659	 28.388700	-0.000001	-11.135870	 2.936139	 2.252919	-9.661266	 2.628171	-20.750250	 4.941196	-12.772340	 22.275850	-91.776280	 78.527380	-179.999900	-16.667330	 32.350010	 35.062100	-16.459590	-6.833790	-102.050900	 4.098583	-28.562640	-4.219052	-4.131196	 21.524690	 0.986298	-5.167839	 0.733520	 3.519257	-1.378229	 35.397820	-2.634230	 1.744026	 8.234207	 1.028816	-15.314240	-9.430882	-5.151635	 89.782160	 78.203900	 179.999900	-6.506546	 40.566750	-16.051410	 9.609986	-20.551180	 81.240830	-6.188884	 6.822734	 21.725150	 5.715225	 19.176060	-3.692089	 5.027514	 0.245388	-9.378011	-2.350882	 35.473990	 5.254307
-0.681972	-1.592738	 1.268166	-176.763200	 10.429770	-1.406377	-11.169220	-11.130630	 172.811400	 3.287989	-32.605090	 2.829209	-38.810530	 53.723430	 32.735960	-2.385833	 28.452760	 0.000004	 4.423870	-29.157260	-172.823700	-6.884740	-31.477740	 2.099314	 31.969470	 70.110390	-23.901000	 2.384659	 28.388700	-0.000001	-16.580520	-1.234490	-3.469899	-14.966670	 13.891230	-17.449200	 7.412039	-18.621800	 22.540900	-91.776190	 78.527380	-180.000000	 14.009110	 50.188560	-0.067301	-15.479670	-6.782483	-94.188740	 3.778352	-29.247130	-4.235015	-4.131196	 21.524690	 0.986298	-5.167839	 0.733520	 3.519257	-1.378229	 35.397820	-2.634230	 2.127548	 8.395672	 0.404167	-15.304010	-9.823994	-4.604467	 89.782040	 78.292020	-179.971800	-18.858420	 55.668440	 1.212624	 2.028917	-18.491370	 59.486350	-18.733440	-14.679110	 35.939290	 5.715225	 19.176060	-3.692089	 5.027514	 0.245388	-9.378011	-2.350882	 35.473990	 5.254307
-0.663862	-1.559229	 1.267093	-176.992400	 13.097670	-0.085186	-12.564790	-9.292484	 169.100700	 1.573049	-33.552270	 1.950058	-33.418080	 46.489970	 31.870330	-2.385833	 28.452760	 0.000004	 4.972732	-34.699980	-171.929400	-7.873705	-32.266790	 1.616879	 33.311060	 65.202510	-26.352390	 2.384659	 28.388700	-0.000001	-21.727080	-4.071975	-10.203770	-20.251770	 20.473420	-10.777860	 8.157064	-22.505000	 20.516890	-91.776180	 78.527400	-180.000000	 24.606780	 50.621930	-39.294800	-10.990490	-5.601152	-54.762320	 3.517334	-30.061610	-4.311718	-4.131196	 21.524690	 0.986298	-5.167839	 0.733520	 3.519257	-1.378229	 35.397820	-2.634230	 2.450123	 8.717240	 0.046082	-15.217980	-10.172480	-4.344643	 89.781890	 78.318950	-179.963000	-24.733860	 58.636590	 33.366790	-8.306913	-0.169866	 1.152382	-10.389610	-43.752740	 67.728500	 5.715225	 19.176060	-3.692089	 5.027514	 0.245388	-9.378011	-2.350882	 35.473990	 5.254307
-0.638164	-1.518337	 1.266736	-177.155700	 13.379190	 0.670693	-10.319190	-6.009189	 166.703500	 0.432362	-32.295000	 1.274498	-23.123430	 35.472540	 27.127900	-2.385833	 28.452760	 0.000004	 3.349192	-36.029300	-172.980800	-8.342900	-32.076240	 1.358741	 33.749980	 62.766230	-27.692500	 2.384659	 28.388700	-0.000001	-24.128330	-4.232423	-12.769040	-21.920300	 21.748570	-7.578040	 7.447740	-23.128390	 18.690590	-91.776180	 78.527400	-180.000000	 20.383530	 50.482270	-53.784890	-8.472102	-2.985618	-25.403730	 3.662380	-30.543890	-4.578297	-4.131196	 21.524690	 0.986298	-5.167839	 0.733520	 3.519257	-1.378229	 35.397820	-2.634230	 2.417964	 8.780688	-0.226621	-15.456350	-10.092190	-5.123602	 89.781940	 78.327490	-179.961700	-27.748380	 60.507650	 35.200390	-7.249712	-0.143105	 1.380571	-10.205180	-45.003200	 69.351970	 5.715225	 19.176060	-3.692089	 5.027514	 0.245388	-9.378011	-2.350882	 35.473990	 5.254307
-0.611087	-1.478755	 1.266879	-177.585100	 11.902440	 1.416276	-7.502610	-2.959790	 165.028300	-0.324479	-31.601380	 0.853058	-16.158100	 28.129490	 23.771060	-2.385833	 28.452760	 0.000004	 0.046671	-34.320970	-175.967500	-8.105181	-31.783830	 1.473099	 31.949690	 62.318900	-26.538240	 2.384659	 28.388700	-0.000001	-23.833590	-2.838475	-12.372260	-20.586730	 20.355860	-8.253504	 6.410167	-21.825530	 18.302920	-91.776160	 78.527420	 180.000000	 22.305120	 51.871250	-44.593490	-9.441722	-5.238167	-44.328350	 4.434047	-30.321730	-5.059869	-4.131196	 21.524690	 0.986298	-5.167839	 0.733520	 3.519257	-1.378229	 35.397820	-2.634230	 2.074438	 8.415076	-0.783618	-16.102460	-9.732485	-6.315057	 89.781960	 78.321060	-179.965900	-25.803190	 59.576300	 33.647210	-6.392601	-0.130332	 1.637647	-8.445680	-41.917870	 67.852820	 5.715225	 19.176060	-3.692089	 5.027514	 0.245388	-9.378011	-2.350882	 35.473990	 5.254307
